PathFileType	4	(X/Y/Z)	31_1_44_p0_0-253_filt_butterworth.trc
DataRate	CameraRate	NumFrames	NumMarkers	Units	OrigDataRate	OrigDataStartFrame	OrigNumFrames
49.0	49.0	6	27	m	49.0	31	253
Frame#	Time	RHip			RKnee			RAnkle			RBigToe			RSmallToe			RHeel			LHip			LKnee			LAnkle			LBigToe			LSmallToe			LHeel			Neck			Head			Nose			RShoulder			RElbow			RWrist			RThumb			RIndex			RPinky			LShoulder			LElbow			LWrist			LThumb			LIndex			LPinky			
		X1	Y1	Z1	X2	Y2	Z2	X3	Y3	Z3	X4	Y4	Z4	X5	Y5	Z5	X6	Y6	Z6	X7	Y7	Z7	X8	Y8	Z8	X9	Y9	Z9	X10	Y10	Z10	X11	Y11	Z11	X12	Y12	Z12	X13	Y13	Z13	X14	Y14	Z14	X15	Y15	Z15	X16	Y16	Z16	X17	Y17	Z17	X18	Y18	Z18	X19	Y19	Z19	X20	Y20	Z20	X21	Y21	Z21	X22	Y22	Z22	X23	Y23	Z23	X24	Y24	Z24	X25	Y25	Z25	X26	Y26	Z26	X27	Y27	Z27	
31	0.6326530612244898	0.16802666180195586	0.5959093486225719	0.16540262413055173	0.14881235267017556	0.7651223732730036	0.5399253739030716	0.11777843237954363	1.0609932477624437	0.9129687689664667	0.0651463127858438	0.8212044689837563	1.0093865812847498	0.13398944422929052	0.8771020381009589	1.0054390748249995	0.09768228488961728	1.162084903169037	0.9517637387163863	-0.043442559439169456	0.634349666261135	0.15464337296461805	-0.06295832327102119	0.8223121387031128	0.517311338305577	-0.0816829426838207	1.0210409602798936	0.8813062039101505	-0.08247237535591997	0.8634466051767395	0.9913815514452307	-0.1444269081488836	0.9201556084784653	0.9733094787924812	-0.06414750226121177	1.1177865322166167	0.9315321080502383	0.06134613113868942	0.2672507011072692	-0.3906072578495464	0.05359405116457226	0.11192555508743697	-0.6169646908700852	0.05937071695084392	0.07755087283314087	-0.442270308900996	0.2364737082816032	0.307943845061055	-0.31177818777233457	0.30347713880235977	0.4732095211562296	-0.06082925396517273	0.0760947272904219	0.35191547881619833	0.10852674085681778	-0.03749389428939463	0.38867568428793203	0.0905168564572639	-0.04086818490860622	0.3935027863527959	0.14612465468691319	-0.03181717040198073	0.4155263648861962	0.17346106832824143	-0.08989439191515664	0.35791494965654036	-0.32307358427012356	-0.12472826325507072	0.5119731400456625	-0.05234775686147581	-0.0019285884500292087	0.44160547860844435	0.1610537335154619	0.09692043093497123	0.4301025553038661	0.2274440013743748	0.08447452209969346	0.44571363291716226	0.23797079531457288	0.05684570172226358	0.43505410435528635	0.25729967957203276
32	0.6530612244897959	0.16777569108479284	0.5978995647388808	0.1658850349443696	0.1472941713851914	0.7566094747342984	0.5386691070654352	0.11823190268132672	1.0598307516903045	0.9121506734813223	0.06649315796893984	0.8202546264796674	1.0078548120850201	0.13418320987003507	0.8768315233270689	1.0053757364466844	0.0990083591925342	1.1666204231677588	0.9534201994757482	-0.04306519285998169	0.6369459123567976	0.15481780719552826	-0.06296932192224862	0.8224253060461097	0.5173747725971098	-0.08149102392809601	1.022174075276439	0.8826519515520258	-0.08004468760248044	0.8668885901251332	0.9925906638379909	-0.14224933410771373	0.9140073891880448	0.9754866650721105	-0.06261213641369368	1.1208176494581992	0.9316436763516422	0.060196987027802684	0.2645836225802347	-0.38786015467049734	0.05434429448470024	0.10734073911230965	-0.6130664332936503	0.057692739616598224	0.07371564021871768	-0.43900692175200157	0.23640549480238748	0.30786468222981295	-0.31152103685054067	0.3068706342507741	0.4827013749197612	-0.07076976405504803	0.09388586560890654	0.3239571334476462	0.11158864091029097	-0.02979328984784205	0.3705562563707977	0.0850368962329151	-0.03711837562098906	0.38809914388402006	0.14699104627618256	-0.019000658710603094	0.400188962200403	0.18836959427020303	-0.09262587452353688	0.3546286619943183	-0.3210222679742852	-0.1249619975223999	0.5144783509144654	-0.052499446815908894	-0.00777985035163539	0.4381579533977805	0.15884207782755064	0.08179818746793155	0.42363342079743393	0.19879886195369909	0.07463764209339468	0.4430565384538515	0.22800784081221395	0.05561268692088786	0.4375964075669939	0.25591232160706556
33	0.673469387755102	0.16425335232853777	0.5897647232025182	0.16735028225762927	0.14537033481185074	0.7512384155952833	0.5377121687130285	0.11849139244393445	1.0603010093148777	0.9117972335006174	0.067006186194169	0.8191151288985463	1.0068124249890862	0.1340529713429351	0.8765921213025989	1.0051886472420941	0.10105948803983356	1.1744126849247996	0.9555601000169817	-0.04339288467667248	0.6366258719590943	0.1545803411187312	-0.06297691474781425	0.8224674366119017	0.5173835641478928	-0.0814340178979324	1.0224157921331902	0.8829409313942033	-0.07844962586320506	0.8679109758882091	0.9924523289728392	-0.13953297675662113	0.9092984556704842	0.9753769496170467	-0.061133194497243026	1.123608586804753	0.9314251484747995	0.05990644703576906	0.2643294815145301	-0.38591330500342574	0.05529388457628795	0.10427774649045143	-0.6104725775966866	0.05630027337033338	0.0716450719362412	-0.4356319305456512	0.2362625848160949	0.3080611896195167	-0.3116037150506381	0.3086489297501284	0.49301544783423834	-0.07742116193710474	0.11236148028921379	0.30978947467680756	0.11534523974355876	-0.01209511637248566	0.36269049834476996	0.08584265432163292	-0.027943516867517504	0.3842416905772521	0.14737488258938677	-0.0008745507663998108	0.3743493459780288	0.20443544007782796	-0.09520721292676837	0.3496805121177999	-0.31897522987268945	-0.1259353872489642	0.5156291128654089	-0.05518830535452206	-0.01606997293480995	0.4297430184233099	0.15861254268290664	0.06576810321195188	0.41476309663753747	0.17115489656886643	0.06544218938624868	0.42874171090723906	0.21747446457999248	0.05234528094402603	0.4249033889165845	0.25750701645660373
34	0.6938775510204082	0.1577108677210154	0.5741247873088421	0.16963641461492843	0.141445572368674	0.741540763284092	0.5372101135706588	0.11789532659759085	1.065611144565621	0.912675254697755	0.06730447786703928	0.8187376694219595	1.006801138930495	0.13383996917244795	0.8765539042692045	1.0048195506351094	0.10251025056848369	1.1805335427284527	0.9572957689465718	-0.04380616818997199	0.6363984248942737	0.15616373369432449	-0.06300581329102305	0.8224655218966317	0.5173964047316414	-0.08141947292515975	1.0222107058681456	0.88281466861466	-0.07795311201904506	0.8650713489401827	0.9918058340980651	-0.13889368643090233	0.9078057632636363	0.9744473866388421	-0.060809193043004875	1.1243104024863406	0.9314234425112088	0.059446293169774546	0.2649876219608545	-0.384755853638423	0.05603283885373503	0.10197376755948186	-0.6083818724749963	0.055650207453376954	0.07210755501516689	-0.43275553052693005	0.23651201964088123	0.3089083290785541	-0.31198962967937816	0.309229994018877	0.49905092790529415	-0.08132979358063683	0.1274644355813405	0.3144361782620489	0.11526093075773841	0.013130779873398016	0.3565887542622777	0.09318370026240969	-0.011828613269108851	0.3703887615294625	0.14920566442321131	0.016496043323999676	0.34882339941137513	0.20844210377970604	-0.09663091524108519	0.34680908214090356	-0.31704759818778394	-0.12842461436383001	0.5152485202970427	-0.05658343535360192	-0.0240221328527659	0.41681678519402143	0.16201281403805678	0.05933141237924081	0.4010180171428628	0.16323347738543836	0.06108108498173989	0.4103927248694311	0.21312433659212016	0.04598186312994028	0.406621014430623	0.2622354856204764
35	0.7142857142857143	0.15187806384866043	0.5599586775789989	0.17160237160918979	0.13726141193586852	0.7287890315145662	0.5373135530365786	0.1166730840208976	1.0743690479666543	0.9143826968744612	0.06801058567522611	0.8189594824271098	1.0075571704977275	0.13377560068372082	0.8769794120977398	1.0049917001838087	0.10291148393476535	1.1825850494228787	0.9582127662980969	-0.044039929133694394	0.6378211402138391	0.1591350480666579	-0.06307252291354656	0.8224311273256106	0.5174080339279623	-0.08147144367563101	1.0220860225024502	0.8827842902171515	-0.07806290208846325	0.8569173578628814	0.9908809295102124	-0.14026321128002028	0.9077685260024254	0.9738563179020472	-0.061340831996103615	1.1243217434454584	0.9328534060213571	0.0580794879065213	0.26544665642198473	-0.3839685393464931	0.05688756937553682	0.09861448240363568	-0.6054742400428129	0.05571456064191544	0.072472717636599	-0.43025564752426326	0.23774192630882318	0.31022266814266747	-0.31220123027941743	0.30931932541037843	0.499375057508491	-0.08444470892367625	0.1389251993577953	0.33381136137917405	0.11212119121464684	0.038310912124655365	0.34459178564691795	0.10901251068704898	0.012062042014996072	0.34899933555482315	0.15455688823697034	0.032181396182956845	0.336728519432765	0.19976241449175047	-0.09705511309555237	0.34708587306270167	-0.3152109582834084	-0.13186463736534745	0.5116076440395592	-0.05435468541357068	-0.028691892364317573	0.40496161715285167	0.1677004649688767	0.06056094560034196	0.3882656865782466	0.17533056333843558	0.06221627128843028	0.3984435748357323	0.22365328471692913	0.039240639988460946	0.3939612620796913	0.26811572758849156
36	0.7346938775510204	0.15136902999665552	0.5559984790110921	0.17222416770891297	0.13577818490232674	0.7195553118016714	0.538550893863008	0.11540092848878812	1.0801875039269733	0.9165738021066733	0.06841562117703616	0.8190603153931408	1.0083017938548897	0.1336744617977027	0.8780319257845632	1.0064952141691461	0.10287580225392344	1.1822679335257642	0.9584342901244339	-0.04434088081067743	0.6373227116394773	0.16076078568608845	-0.06318823127288314	0.8224286002496353	0.5174603598946114	-0.08182513017151824	1.0224346768764978	0.8828547882763529	-0.0789377669806267	0.8479354704102157	0.9896694526283629	-0.14162962511424265	0.9078325102309377	0.9737454285631856	-0.06231102609480075	1.1266801155736577	0.9359350644434964	0.05723117874208941	0.2657760582362396	-0.3829826675779816	0.0587997093468313	0.09144137070058563	-0.6000219063425446	0.05675852868616177	0.07057378490294214	-0.42661424606160253	0.23978003527486672	0.31126023837918526	-0.310952188424068	0.31034971600410777	0.49961024119009856	-0.08723666674429317	0.15461978675729376	0.3640176426538098	0.11313959524546502	0.06598913111373354	0.3339806938620165	0.1361025342610922	0.048226181683681896	0.3347589261629875	0.16875048739213783	0.059255127566520155	0.34548147605325324	0.19470343695810305	-0.09642081263484764	0.34754030431799665	-0.3133729994104441	-0.13492964848028138	0.5062118056846601	-0.05338594370575703	-0.03134965571378654	0.3984080554453789	0.16503077078597048	0.06000070836049076	0.37778852739724633	0.18827977812021057	0.06174042332274507	0.39085393292683246	0.23681266788519445	0.032436020923380444	0.38838981434873143	0.2648830666968649
